<svg version="1.2" xmlns="http://www.w3.org/2000/svg" viewBox="0 0 356 214" width="300" height="180">
	<title>Novo Projeto</title>
	<style>
		.s0 { fill: #f47b20 } 
	</style>
	<path id="&lt;Compound Path&gt;" fill-rule="evenodd" class="s0" d="m26.3 205.3q-0.7 1.1-1.9 2.1-1.2 1.1-3 1.8-1.9 0.7-4.4 0.8-5.1-0.1-8.2-3.4-3.2-3.3-3.2-7.9v-11.1q0-4.7 3.2-8 3.1-3.3 8.2-3.3 2.6 0 4.4 0.7 1.9 0.7 3 1.8 2.2 2.3 2.6 3.5 0.3 0.4 0.3 1-0.1 0.6-0.7 1.1l-1.7 1.2q-1.2 0.8-2-0.3-0.2-0.6-0.6-1.2-0.4-0.7-1.1-1.3-0.7-0.7-1.7-1.2-1.1-0.4-2.5-0.4-2.9 0.1-4.5 1.9-1.6 1.9-1.6 4.5v11.1q0 2.4 1.6 4.3 1.6 2 4.5 2.1 2.8-0.1 4.1-1.6 0.7-0.7 1.1-1.4 0.5-0.6 0.7-1 0.9-1.3 2-0.5l1.6 1.1q1.3 0.9 0.6 2.1-0.2 0.6-0.8 1.5zm82.2-12.2q-0.1 3-3.1 3h-12.8q-1.5 0-1.5 1.6v1.7q0 2.4 1.5 4.3 1.6 2 4.5 2.1 2.7-0.1 4.4-1.5 1.7-1.4 2.5-2.7 0.4-0.5 1.1-0.6 0.5 0 1 0.4l1.5 1.1q0.6 0.5 0.7 1 0 0.7-0.4 1.1-0.6 1-1.5 2.1-0.9 1-2.2 2-2.7 1.9-7.1 2-5-0.1-8.1-3.4-3.2-3.3-3.2-7.9v-11.1q0-4.7 3.2-8 3.1-3.3 8.1-3.3 5.3 0 8.3 3.3 3 3.3 3.1 8zm-5.3-4.7q0-2.6-1.6-4.5-1.6-1.9-4.5-2-2.9 0.1-4.4 2-1.6 1.9-1.6 4.5v1.7q0 1.5 1.5 1.5h9.1q1.5 0 1.5-1.5zm82.5 18.6q-3 3-8.4 3-4.4-0.1-7.1-2.2-2.7-2-3.9-4.1-0.8-1.2 0.4-2.1l1.6-1.2q1.2-0.7 2 0.4 1.2 1.6 2.9 2.9 1.8 1.4 4.1 1.4 3.3-0.1 4.7-1.8 1.4-1.7 1.4-3.7 0-1.8-0.9-2.8-1-1.1-2.2-1.4-2.8-0.7-3-0.6-10.4-0.9-10.6-9.2 0-3.5 2.7-6.4 2.7-2.8 7.9-2.9 3 0.1 5.2 1.1 2 1.1 3.4 2.7 1 1.1-0.2 2l-1.6 1.2q-1.2 0.7-2.2-0.2-2.1-1.9-4.6-1.9-3.2 0-4.3 1.5-1.2 1.5-1.2 2.8 0 1.5 0.9 2.3 0.7 0.9 1.8 1.4 2.6 0.7 2.8 0.7 4.7 0.1 8 2.4 3.3 2.3 3.3 7.2 0 4.5-2.9 7.5zm83.8 0.8q0 1.5-1.5 1.5h-2.3q-1.5 0-1.5-1.5v-10.8q0-1.5-1.5-1.5h-9.1q-1.5 0-1.5 1.5v10.8q0 1.5-1.5 1.5h-2.3q-1.5 0-1.5-1.5v-20.1q0-4.7 3.2-8 3.1-3.3 8.2-3.4 5.2 0.1 8.2 3.4 3 3.3 3.1 8zm-5.3-20.2q0-2.6-1.5-4.5-1.6-1.9-4.5-1.9-2.9 0-4.5 1.9-1.6 1.9-1.6 4.5v1.7q0 1.5 1.5 1.5h9.1q1.5 0 1.5-1.5zm86.2 20.2q0 1.5-1.5 1.5h-2.3q-1.5 0-1.5-1.5v-6q0-2.6-1.6-4.5-1.6-1.8-4.5-1.9h-4.5q-1.5 0-1.5 1.5v10.9q0 1.5-1.5 1.5h-2.3q-1.5 0-1.5-1.5v-20.2q0-4.7 3.2-8 3.1-3.3 8.1-3.4 5 0 8.2 2.6 3.1 2.6 3.2 7.4-0.1 2.8-1.2 4.3-1.2 1.5-2 2-0.9 0.7 0 1.4 1.3 0.9 2.2 2.8 1 1.9 1 5.1zm-7.1-25.4q-1.7-1.2-4.3-1.2-2.9 0-4.5 1.9-1.5 1.9-1.5 4.5v1.7q0 1.5 1.5 1.5h4.5q1.6 0.1 3.8-0.9 2.2-0.8 2.3-3.7-0.1-2.6-1.8-3.8zm-201.3-174.3c-40.3 4.8-69.2 22.2-69.2 37 0 19 47.2 34.5 105.1 34.5 57.8 0 105-15.5 105-34.5 0-14.8-28.9-33-69.2-37.9v-3.2c77.9 6.7 136.5 34.8 136.5 68.2 0 38.4-77.4 69.7-172.3 69.7-95 0-172.4-31.3-172.4-69.7 0-33.4 58.7-61.5 136.5-68.2zm20.8 7.4c-16.7 1.8-28.7 6.5-28.7 12 0 7 19.5 12.7 43.5 12.7 24 0 43.6-5.7 43.6-12.7 0-5.5-12-10.2-28.7-12v-3.2c32.2 2.5 56.5 12.8 56.5 25.1 0 14.2-32 25.7-71.4 25.7-39.3 0-71.4-11.5-71.4-25.7 0-12.3 24.3-22.6 56.6-25.1zm-104 193.5q0 0.9-1 1h-1.4q-1-0.1-1-1v-1q0-1 1-1.1h1.4q1 0.1 1 1.1zm80.7-0.1q0 1-1 1.1h-1.4q-1-0.1-1-1.1v-0.9q0-1 1-1.1h1.4q1 0.1 1 1.1zm80.1 0q0 1-1 1.1h-1.4q-1-0.1-1-1.1v-0.9q0-1 1-1.1h1.4q1 0.1 1 1.1zm80.1-0.1q0 1-0.9 1h-1.4q-1 0-1-1v-1q0-1 1-1h1.4q0.9 0 0.9 1z"/>
</svg>